<svg xmlns="http://www.w3.org/2000/svg" viewBox="0 0 78 78"><defs><style>.a66b9bc6-7a8d-4a3a-a594-69d416c80e69{fill:none;stroke:#fe7631;stroke-miterlimit:10;stroke-width:3px;fill-rule:evenodd;opacity:0.2;}.\36 01767e6-a017-463b-b179-b24546a1e72e{fill:#fe7631;}</style></defs><title>loyaltyProgram</title><g id="0525cf86-69f1-476d-b0a4-cd48a331133c" data-name="Layer 1"><path class="a66b9bc6-7a8d-4a3a-a594-69d416c80e69" d="M40,2.5A37.5,37.5,0,1,1,2.5,40,37.5,37.5,0,0,1,40,2.5Z" transform="translate(-1 -1)"/></g><g id="06ed5327-a8e1-44bb-9b7b-afb9c4a6f4cb" data-name="Layer 4"><path class="601767e6-a017-463b-b179-b24546a1e72e" d="M54.55,31.83H50.39a4.06,4.06,0,0,0,.52-3.37c0-.06-.1-.3-.12-.37a4,4,0,0,0-2.68-2.43,4.12,4.12,0,0,0-3.65.69L40,29.75l-4.46-3.4a4.12,4.12,0,0,0-3.65-.69,4,4,0,0,0-2.68,2.43c0,.06-.11.31-.12.37a4.06,4.06,0,0,0,.52,3.37H25.45a.94.94,0,0,0-.95,1v7.59a1,1,0,0,0,.95,1h.95V55.55a.94.94,0,0,0,1,1h25.3a.94.94,0,0,0,1-1V41.32h.95a1,1,0,0,0,1-1V32.78A.94.94,0,0,0,54.55,31.83ZM41,31.41l4.66-3.55a2.23,2.23,0,0,1,2-.37A2.08,2.08,0,0,1,49,28.78l.07.2a2.15,2.15,0,0,1-.36,1.91,2.23,2.23,0,0,1-1.8.91l-.6,0H41v-.42Zm0,4.36,2.58,3.65H41ZM30.91,29l.07-.2a2.08,2.08,0,0,1,1.43-1.29,2.23,2.23,0,0,1,2,.37l4.66,3.55v.42H33.67l-.6,0a2.23,2.23,0,0,1-1.8-.91A2.15,2.15,0,0,1,30.91,29ZM26.4,39.42V33.73H39.05v5.69ZM51.7,54.6H28.3V41.32H39.05V48A.95.95,0,0,0,41,48V41.32h3.92l2,2.76a1,1,0,0,0,1.32.23A1,1,0,0,0,48.37,43l-1.18-1.66H51.7Zm1.9-15.18H45.85l-4-5.69H53.6Z" transform="translate(-1 -1)"/></g></svg>